<svg xmlns="http://www.w3.org/2000/svg" viewBox="0 0 100 100" width="100" height="100">
  <defs>
    <linearGradient id="bv-bg" x1="0%" y1="0%" x2="100%" y2="100%">
      <stop offset="0%" stop-color="#016737" />
      <stop offset="100%" stop-color="#05361d" />
    </linearGradient>
    <linearGradient id="bv-leaf" x1="0%" y1="100%" x2="100%" y2="0%">
      <stop offset="0%" stop-color="#8BC43F" />
      <stop offset="100%" stop-color="#B2F042" />
    </linearGradient>
  </defs>
  <rect width="100" height="100" rx="24" fill="url(#bv-bg)"/>
  <!-- Minimal Bio Vriksh Leaf Emblem -->
  <path d="M 50 16 C 26 24 18 52 32 74 C 42 66 50 50 50 36 C 50 50 58 66 68 74 C 82 52 74 24 50 16 Z" fill="url(#bv-leaf)"/>
  <path d="M 50 32 C 50 52 40 68 34 78 C 42 82 58 82 66 78 C 60 68 50 52 50 32 Z" fill="#FFFFFF" opacity="0.9"/>
  <circle cx="50" cy="82" r="3.5" fill="#8BC43F"/>
</svg>
